[Header]
FileType HTR
DataType HTRS
FileVersion 1
NumSegments 64
NumFrames 4
DataFrameRate 24
EulerRotationOrder ZYX
CalibrationUnits mm
RotationUnits Degrees
GlobalAxisofGravity Y
BoneLengthAxis Y
ScaleFactor 1.0
[SegmentNames&Hierarchy]
Hips	GLOBAL
Spine	Hips
Spine1	Spine
Spine2	Spine1
Neck	Spine2
Head	Neck
LeftEye	Head
RightEye	Head
LeftShoulder	Spine2
LeftArm	LeftShoulder
LeftForeArm	LeftArm
LeftHand	LeftForeArm
LeftHandThumb1	LeftHand
LeftHandThumb2	LeftHandThumb1
LeftHandThumb3	LeftHandThumb2
LeftHandThumb4	LeftHandThumb3
LeftHandIndex1	LeftHand
LeftHandIndex2	LeftHandIndex1
LeftHandIndex3	LeftHandIndex2
LeftHandIndex4	LeftHandIndex3
LeftHandMiddle1	LeftHand
LeftHandMiddle2	LeftHandMiddle1
LeftHandMiddle3	LeftHandMiddle2
LeftHandMiddle4	LeftHandMiddle3
LeftHandRing1	LeftHand
LeftHandRing2	LeftHandRing1
LeftHandRing3	LeftHandRing2
LeftHandRing4	LeftHandRing3
LeftHandPinky1	LeftHand
LeftHandPinky2	LeftHandPinky1
LeftHandPinky3	LeftHandPinky2
LeftHandPinky4	LeftHandPinky3
RightShoulder	Spine2
RightArm	RightShoulder
RightForeArm	RightArm
RightHand	RightForeArm
RightHandPinky1	RightHand
RightHandPinky2	RightHandPinky1
RightHandPinky3	RightHandPinky2
RightHandPinky4	RightHandPinky3
RightHandRing1	RightHand
RightHandRing2	RightHandRing1
RightHandRing3	RightHandRing2
RightHandRing4	RightHandRing3
RightHandMiddle1	RightHand
RightHandMiddle2	RightHandMiddle1
RightHandMiddle3	RightHandMiddle2
RightHandMiddle4	RightHandMiddle3
RightHandIndex1	RightHand
RightHandIndex2	RightHandIndex1
RightHandIndex3	RightHandIndex2
RightHandIndex4	RightHandIndex3
RightHandThumb1	RightHand
RightHandThumb2	RightHandThumb1
RightHandThumb3	RightHandThumb2
RightHandThumb4	RightHandThumb3
LeftUpLeg	Hips
LeftLeg	LeftUpLeg
LeftFoot	LeftLeg
LeftToeBase	LeftFoot
RightUpLeg	Hips
RightLeg	RightUpLeg
RightFoot	RightLeg
RightToeBase	RightFoot
[BasePosition]
Hips	0	0	0	0	0	0	1
Spine	0	0	0	0	0	0	1
Spine1	0	0	0	0	0	0	1
Spine2	0	0	0	0	0	0	1
Neck	0	0	0	0	0	0	1
Head	0	0	0	0	0	0	1
LeftEye	0	0	0	0	0	0	1
RightEye	0	0	0	0	0	0	1
LeftShoulder	0	0	0	0	0	0	1
LeftArm	0	0	0	0	0	0	1
LeftForeArm	0	0	0	0	0	0	1
LeftHand	0	0	0	0	0	0	1
LeftHandThumb1	0	0	0	0	0	0	1
LeftHandThumb2	0	0	0	0	0	0	1
LeftHandThumb3	0	0	0	0	0	0	1
LeftHandThumb4	0	0	0	0	0	0	1
LeftHandIndex1	0	0	0	0	0	0	1
LeftHandIndex2	0	0	0	0	0	0	1
LeftHandIndex3	0	0	0	0	0	0	1
LeftHandIndex4	0	0	0	0	0	0	1
LeftHandMiddle1	0	0	0	0	0	0	1
LeftHandMiddle2	0	0	0	0	0	0	1
LeftHandMiddle3	0	0	0	0	0	0	1
LeftHandMiddle4	0	0	0	0	0	0	1
LeftHandRing1	0	0	0	0	0	0	1
LeftHandRing2	0	0	0	0	0	0	1
LeftHandRing3	0	0	0	0	0	0	1
LeftHandRing4	0	0	0	0	0	0	1
LeftHandPinky1	0	0	0	0	0	0	1
LeftHandPinky2	0	0	0	0	0	0	1
LeftHandPinky3	0	0	0	0	0	0	1
LeftHandPinky4	0	0	0	0	0	0	1
RightShoulder	0	0	0	0	0	0	1
RightArm	0	0	0	0	0	0	1
RightForeArm	0	0	0	0	0	0	1
RightHand	0	0	0	0	0	0	1
RightHandPinky1	0	0	0	0	0	0	1
RightHandPinky2	0	0	0	0	0	0	1
RightHandPinky3	0	0	0	0	0	0	1
RightHandPinky4	0	0	0	0	0	0	1
RightHandRing1	0	0	0	0	0	0	1
RightHandRing2	0	0	0	0	0	0	1
RightHandRing3	0	0	0	0	0	0	1
RightHandRing4	0	0	0	0	0	0	1
RightHandMiddle1	0	0	0	0	0	0	1
RightHandMiddle2	0	0	0	0	0	0	1
RightHandMiddle3	0	0	0	0	0	0	1
RightHandMiddle4	0	0	0	0	0	0	1
RightHandIndex1	0	0	0	0	0	0	1
RightHandIndex2	0	0	0	0	0	0	1
RightHandIndex3	0	0	0	0	0	0	1
RightHandIndex4	0	0	0	0	0	0	1
RightHandThumb1	0	0	0	0	0	0	1
RightHandThumb2	0	0	0	0	0	0	1
RightHandThumb3	0	0	0	0	0	0	1
RightHandThumb4	0	0	0	0	0	0	1
LeftUpLeg	0	0	0	0	0	0	1
LeftLeg	0	0	0	0	0	0	1
LeftFoot	0	0	0	0	0	0	1
LeftToeBase	0	0	0	0	0	0	1
RightUpLeg	0	0	0	0	0	0	1
RightLeg	0	0	0	0	0	0	1
RightFoot	0	0	0	0	0	0	1
RightToeBase	0	0	0	0	0	0	1
[Hips]
101	6.932141304	1016.705688	19.14278793	-0.773930788	1.337759495	-5.458108902	1.0
102	6.999278545	1016.720337	19.14646912	-0.7717617154	1.343840241	-5.457023621	1.0
103	7.066398144	1016.72998	19.14931107	-0.7699508667	1.352702379	-5.457630634	1.0
104	7.134478569	1016.7276	19.15142441	-0.7689254284	1.368678689	-5.462258816	1.0
[Spine]
101	0	101.8159943	1.315000057	1.232968688	-1.265693903	3.031176567	1.0
102	0	101.8159943	1.315000057	1.231735945	-1.267759442	3.030357838	1.0
103	0	101.8159943	1.315000057	1.228766084	-1.270262599	3.029044151	1.0
104	0	101.8159943	1.315000057	1.221692801	-1.274220347	3.026547194	1.0
[Spine1]
101	0	100.8349991	-10.00800037	0.7505794764	0.186710611	5.945375443	1.0
102	0	100.8349991	-10.00800037	0.7483403683	0.1860238314	5.943069935	1.0
103	0	100.8349991	-10.00800037	0.743455112	0.1851038188	5.940773964	1.0
104	0	100.8349991	-10.00800037	0.7324303389	0.1836267114	5.938516617	1.0
[Spine2]
101	0	91	-13.73399925	0.7851886749	0.7045116425	5.859447956	1.0
102	0	91	-13.73399925	0.7829318047	0.7040022612	5.85711956	1.0
103	0	91	-13.73399925	0.7780169249	0.7035063505	5.854773998	1.0
104	0	91	-13.73399925	0.7669376135	0.7030010223	5.852407932	1.0
[Neck]
101	0	166.7169952	-25.16200066	1.053279638	-0.2620109022	-2.170180559	1.0
102	0	166.7169952	-25.16200066	1.050481915	-0.2572340965	-2.172207117	1.0
103	0	166.7169952	-25.16200066	1.049105406	-0.2537744343	-2.173601151	1.0
104	0	166.7169952	-25.16200066	1.051928759	-0.2536668777	-2.17275238	1.0
[Head]
101	0	96.17900085	16.84999847	1.478775978	0.7690569758	-8.113587379	1.0
102	0	96.17900085	16.84999847	1.450636506	0.7862209082	-8.123941422	1.0
103	0	96.17900085	16.84999847	1.427594543	0.7965359092	-8.126111031	1.0
104	0	96.17900085	16.84999847	1.416763067	0.7901033759	-8.106958389	1.0
[LeftEye]
101	30.6760006	64.09500122	92.83599854	0	0	0	1.0
102	30.6760006	64.09500122	92.83599854	0	0	0	1.0
103	30.6760006	64.09500122	92.83599854	0	0	0	1.0
104	30.6760006	64.09500122	92.83599854	0	0	0	1.0
[RightEye]
101	-30.6760006	64.09500122	92.83499908	0	0	0	1.0
102	-30.6760006	64.09500122	92.83499908	0	0	0	1.0
103	-30.6760006	64.09500122	92.83499908	0	0	0	1.0
104	-30.6760006	64.09500122	92.83499908	0	0	0	1.0
[LeftShoulder]
101	45.70400238	109.4599991	-26.28000069	4.901297569	-13.36871815	-6.039637089	1.0
102	45.70400238	109.4599991	-26.28000069	4.902089119	-13.35924053	-6.029561043	1.0
103	45.70400238	109.4599991	-26.28000069	4.902263165	-13.35501194	-5.997505188	1.0
104	45.70400238	109.4599991	-26.28000069	4.900982857	-13.36377525	-5.916522503	1.0
[LeftArm]
101	105.923996	-5.24600029	-22.32099915	-3.27297616	4.193705082	-83.63970184	1.0
102	105.923996	-5.24600029	-22.32099915	-3.279281855	4.174598217	-83.65570831	1.0
103	105.923996	-5.24600029	-22.32099915	-3.282373667	4.161373615	-83.69439697	1.0
104	105.923996	-5.24600029	-22.32099915	-3.27675271	4.161957741	-83.7832489	1.0
[LeftForeArm]
101	278.414978	-0.0009999999311	0	7.407862086e-06	-14.50268364	-0.000228040255	1.0
102	278.414978	-0.0009999999311	0	1.728482289e-06	-14.48709679	-0.0002136932453	1.0
103	278.414978	-0.0009999999311	0	-3.082036301e-06	-14.47714615	-0.0001991266909	1.0
104	278.414978	-0.0009999999311	0	-5.320288892e-06	-14.48122978	-0.000184376142	1.0
[LeftHand]
101	283.2879944	0	0	-27.76897812	-1.117794514	-10.04745102	1.0
102	283.2879944	0	0	-27.73790169	-1.126737118	-10.07303524	1.0
103	283.2879944	0	0	-27.71771431	-1.125647783	-10.08664417	1.0
104	283.2879944	0	0	-27.72432327	-1.095779657	-10.06891632	1.0
[LeftHandThumb1]
101	24.6609993	-15.75	26.8239994	19.57222176	-0.473625809	12.78088474	1.0
102	24.6609993	-15.75	26.8239994	19.56795883	-0.4821760058	12.77419186	1.0
103	24.6609993	-15.75	26.8239994	19.55768585	-0.5028710365	12.75799942	1.0
104	24.6609993	-15.75	26.8239994	19.5341053	-0.5504130125	12.72079659	1.0
[LeftHandThumb2]
101	32.29800034	-18.64699936	18.64699936	1.348215938	37.06547546	-1.734510899	1.0
102	32.29800034	-18.64699936	18.64699936	1.34345746	37.05443954	-1.737431645	1.0
103	32.29800034	-18.64699936	18.64699936	1.331977844	37.02774429	-1.74444437	1.0
104	32.29800034	-18.64699936	18.64699936	1.305631995	36.96642303	-1.760505438	1.0
[LeftHandThumb3]
101	26.52600098	-15.31499958	15.31499958	3.317699909	13.60195923	1.111572504	1.0
102	26.52600098	-15.31499958	15.31499958	3.314390182	13.59096909	1.10850966	1.0
103	26.52600098	-15.31499958	15.31499958	3.306411982	13.56439304	1.101129532	1.0
104	26.52600098	-15.31499958	15.31499958	3.288109064	13.50335503	1.084197521	1.0
[LeftHandThumb4]
101	19.54599953	-11.28499985	11.28499985	0	0	0	1.0
102	19.54599953	-11.28499985	11.28499985	0	0	0	1.0
103	19.54599953	-11.28499985	11.28499985	0	0	0	1.0
104	19.54599953	-11.28499985	11.28499985	0	0	0	1.0
[LeftHandIndex1]
101	91.09299469	-5.170999527	22.60099792	-0.4625170827	4.852718353	-9.786566734	1.0
102	91.09299469	-5.170999527	22.60099792	-0.4623827934	4.852575302	-9.785019875	1.0
103	91.09299469	-5.170999527	22.60099792	-0.4620678127	4.852231503	-9.781305313	1.0
104	91.09299469	-5.170999527	22.60099792	-0.4613556266	4.851445198	-9.772808075	1.0
[LeftHandIndex2]
101	36.76399994	0	0	-0.7248469591	2.942155361	-22.51153755	1.0
102	36.76399994	0	0	-0.7247672677	2.942021608	-22.5100174	1.0
103	36.76399994	0	0	-0.724576354	2.941698074	-22.50632477	1.0
104	36.76399994	0	0	-0.724139452	2.940954685	-22.49783134	1.0
[LeftHandIndex3]
101	28.83100128	0	0	-0.1473207772	0.9964096546	-12.10514545	1.0
102	28.83100128	0	0	-0.1472893059	0.9962565303	-12.10361004	1.0
103	28.83100128	0	0	-0.1472120434	0.9958919287	-12.09991646	1.0
104	28.83100128	0	0	-0.1470330358	0.9950609207	-12.09145546	1.0
[LeftHandIndex4]
101	23.92700005	0	0	0	0	0	1.0
102	23.92700005	0	0	0	0	0	1.0
103	23.92700005	0	0	0	0	0	1.0
104	23.92700005	0	0	0	0	0	1.0
[LeftHandMiddle1]
101	95.33399963	0	0	-1.760108352	8.815581322	-17.84082794	1.0
102	95.33399963	0	0	-1.759916306	8.815475464	-17.83927727	1.0
103	95.33399963	0	0	-1.759456277	8.815219879	-17.83553696	1.0
104	95.33399963	0	0	-1.758404374	8.814630508	-17.8269577	1.0
[LeftHandMiddle2]
101	36.98199844	0	0	-1.562783122	3.965627432	-35.36347198	1.0
102	36.98199844	0	0	-1.562676549	3.965517998	-35.36194611	1.0
103	36.98199844	0	0	-1.562415123	3.965251446	-35.35823822	1.0
104	36.98199844	0	0	-1.561811209	3.964636803	-35.34971237	1.0
[LeftHandMiddle3]
101	29.50900078	0	0	-0.1967372298	1.672203541	-14.20015526	1.0
102	29.50900078	0	0	-0.1966952682	1.672057986	-14.19862366	1.0
103	29.50900078	0	0	-0.1965974122	1.671704412	-14.19493103	1.0
104	29.50900078	0	0	-0.1963765472	1.670891285	-14.1864624	1.0
[LeftHandMiddle4]
101	28.3390007	0	0	0	0	0	1.0
102	28.3390007	0	0	0	0	0	1.0
103	28.3390007	0	0	0	0	0	1.0
104	28.3390007	0	0	0	0	0	1.0
[LeftHandRing1]
101	91.04499817	-0.4390000105	-18.65100098	-3.641605139	11.74328136	-31.56604385	1.0
102	91.04499817	-0.4390000105	-18.65100098	-3.639989138	11.74278736	-31.55418587	1.0
103	91.04499817	-0.4390000105	-18.65100098	-3.636087179	11.74158192	-31.52552032	1.0
104	91.04499817	-0.4390000105	-18.65100098	-3.627130747	11.73880768	-31.459692	1.0
[LeftHandRing2]
101	31.54000092	0	0	-1.48918891	4.39884758	-44.75935745	1.0
102	31.54000092	0	0	-1.48840344	4.397994995	-44.74763489	1.0
103	31.54000092	0	0	-1.486507893	4.395930767	-44.71928406	1.0
104	31.54000092	0	0	-1.48215723	4.391187668	-44.65416718	1.0
[LeftHandRing3]
101	29.37700081	0	0	-0.2159302682	2.335677862	-23.85784912	1.0
102	29.37700081	0	0	-0.215568915	2.334578514	-23.84622574	1.0
103	29.37700081	0	0	-0.2146970779	2.331920624	-23.81810951	1.0
104	29.37700081	0	0	-0.2126945406	2.325818062	-23.75352478	1.0
[LeftHandRing4]
101	26.47500038	0	0	0	0	0	1.0
102	26.47500038	0	0	0	0	0	1.0
103	26.47500038	0	0	0	0	0	1.0
104	26.47500038	0	0	0	0	0	1.0
[LeftHandPinky1]
101	80.77799988	-4.887000084	-38.06099701	-6.534531116	16.11463547	-41.6263504	1.0
102	80.77799988	-4.887000084	-38.06099701	-6.531133175	16.11468124	-41.61418152	1.0
103	80.77799988	-4.887000084	-38.06099701	-6.522925854	16.11478996	-41.58478546	1.0
104	80.77799988	-4.887000084	-38.06099701	-6.504083157	16.1150322	-41.51728821	1.0
[LeftHandPinky2]
101	36	0	0	-2.297912121	4.101548195	-50.20284271	1.0
102	36	0	0	-2.296976089	4.100851059	-50.19115829	1.0
103	36	0	0	-2.294717073	4.099167824	-50.16290665	1.0
104	36	0	0	-2.2895329	4.095304489	-50.09804535	1.0
[LeftHandPinky3]
101	21.14200211	0	0	-0.7540767789	3.234814882	-25.0537262	1.0
102	21.14200211	0	0	-0.7534935474	3.233805895	-25.04208755	1.0
103	21.14200211	0	0	-0.7520870566	3.231362581	-25.01392937	1.0
104	21.14200211	0	0	-0.7488588691	3.225748539	-24.94923973	1.0
[LeftHandPinky4]
101	19.75699997	0	0	0	0	0	1.0
102	19.75699997	0	0	0	0	0	1.0
103	19.75699997	0	0	0	0	0	1.0
104	19.75699997	0	0	0	0	0	1.0
[RightShoulder]
101	-45.70000076	109.4620056	-26.28000069	4.812945366	2.864771843	5.693258286	1.0
102	-45.70000076	109.4620056	-26.28000069	4.815294266	2.865839005	5.675714016	1.0
103	-45.70000076	109.4620056	-26.28000069	4.821285725	2.86515379	5.638139725	1.0
104	-45.70000076	109.4620056	-26.28000069	4.835355759	2.860160351	5.55654192	1.0
[RightArm]
101	-105.9280014	-5.248000145	-22.32099915	0.2850417495	1.659036279	67.37547302	1.0
102	-105.9280014	-5.248000145	-22.32099915	0.2702364624	1.659132004	67.39331055	1.0
103	-105.9280014	-5.248000145	-22.32099915	0.2571941912	1.660623908	67.43239594	1.0
104	-105.9280014	-5.248000145	-22.32099915	0.2469317168	1.666211009	67.51912689	1.0
[RightForeArm]
101	-278.414978	0	0	2.172069571e-06	17.72746468	3.082365947e-05	1.0
102	-278.414978	0	0	4.888108379e-06	17.72150803	1.824501851e-05	1.0
103	-278.414978	0	0	6.308675438e-06	17.71537781	7.17147077e-06	1.0
104	-278.414978	0	0	4.518328751e-06	17.708498	2.714148422e-06	1.0
[RightHand]
101	-283.2879944	0	0.0009999999311	-12.67736721	-6.828563213	11.81789303	1.0
102	-283.2879944	0	0.0009999999311	-12.67386055	-6.830432892	11.82458115	1.0
103	-283.2879944	0	0.0009999999311	-12.67045593	-6.829573154	11.83110142	1.0
104	-283.2879944	0	0.0009999999311	-12.66913128	-6.821929455	11.84009552	1.0
[RightHandPinky1]
101	-80.76699829	-4.885000229	-38.06000137	-6.534401417	-16.11567879	41.62668228	1.0
102	-80.76699829	-4.885000229	-38.06000137	-6.53100872	-16.11573219	41.61453629	1.0
103	-80.76699829	-4.885000229	-38.06000137	-6.522805214	-16.11584091	41.58516312	1.0
104	-80.76699829	-4.885000229	-38.06000137	-6.503962994	-16.11608696	41.51767731	1.0
[RightHandPinky2]
101	-36	0	0.0009999999311	-2.296402931	-4.099915028	50.20279694	1.0
102	-36	0	0.0009999999311	-2.295468569	-4.09922123	50.19112015	1.0
103	-36	0	0.0009999999311	-2.293210506	-4.097539425	50.16287231	1.0
104	-36	0	0.0009999999311	-2.288025141	-4.093673706	50.09800339	1.0
[RightHandPinky3]
101	-21.14200211	0	0	-0.9868885875	-0.3402149081	26.63978004	1.0
102	-21.14200211	0	0	-0.9862781167	-0.3392228782	26.62816238	1.0
103	-21.14200211	0	0	-0.9848076701	-0.3368204832	26.60006905	1.0
104	-21.14200211	0	0	-0.9814348221	-0.3313006461	26.53555679	1.0
[RightHandPinky4]
101	-19.75699997	0	0	0	0	0	1.0
102	-19.75699997	0	0	0	0	0	1.0
103	-19.75699997	0	0	0	0	0	1.0
104	-19.75699997	0	0	0	0	0	1.0
[RightHandRing1]
101	-91.03599548	-0.4390000105	-18.65100098	-3.641498804	-11.74285889	31.56616211	1.0
102	-91.03599548	-0.4390000105	-18.65100098	-3.639885426	-11.74236584	31.55431175	1.0
103	-91.03599548	-0.4390000105	-18.65100098	-3.635985851	-11.7411623	31.52565765	1.0
104	-91.03599548	-0.4390000105	-18.65100098	-3.627031803	-11.73839188	31.4598465	1.0
[RightHandRing2]
101	-31.54000092	0	0	-1.488959074	-4.398282051	44.75939941	1.0
102	-31.54000092	0	0	-1.488174438	-4.39743042	44.74769211	1.0
103	-31.54000092	0	0	-1.486279249	-4.395366192	44.71934891	1.0
104	-31.54000092	0	0	-1.481927395	-4.390624046	44.65422058	1.0
[RightHandRing3]
101	-29.37700081	0	0	-0.2503510118	-0.3453170657	22.33088875	1.0
102	-29.37700081	0	0	-0.2500174046	-0.3442099988	22.31927681	1.0
103	-29.37700081	0	0	-0.2492169589	-0.3415302932	22.29118729	1.0
104	-29.37700081	0	0	-0.2473834455	-0.3353738189	22.22667313	1.0
[RightHandRing4]
101	-26.47500038	0	0	0	0	0	1.0
102	-26.47500038	0	0	0	0	0	1.0
103	-26.47500038	0	0	0	0	0	1.0
104	-26.47500038	0	0	0	0	0	1.0
[RightHandMiddle1]
101	-95.32500458	0	0	-1.760080457	-8.815333366	17.84094238	1.0
102	-95.32500458	0	0	-1.759888887	-8.815228462	17.83938217	1.0
103	-95.32500458	0	0	-1.759429216	-8.814972878	17.83563995	1.0
104	-95.32500458	0	0	-1.75837779	-8.81438446	17.82707405	1.0
[RightHandMiddle2]
101	-36.98199844	0	0	-1.562639832	-3.965167999	35.36353302	1.0
102	-36.98199844	0	0	-1.562530279	-3.96505785	35.36199188	1.0
103	-36.98199844	0	0	-1.562266231	-3.964791059	35.35828781	1.0
104	-36.98199844	0	0	-1.561661005	-3.964178085	35.34976959	1.0
[RightHandMiddle3]
101	-29.50900078	0	0	-0.3129062653	-1.861377478	17.83523941	1.0
102	-29.50900078	0	0	-0.312856555	-1.861234546	17.83371353	1.0
103	-29.50900078	0	0	-0.3127371967	-1.860887527	17.8300209	1.0
104	-29.50900078	0	0	-0.3124639988	-1.860088587	17.82153893	1.0
[RightHandMiddle4]
101	-28.3390007	0	0.0009999999311	0	0	0	1.0
102	-28.3390007	0	0.0009999999311	0	0	0	1.0
103	-28.3390007	0	0.0009999999311	0	0	0	1.0
104	-28.3390007	0	0.0009999999311	0	0	0	1.0
[RightHandIndex1]
101	-91.08300018	-5.167999744	22.60099792	-0.4625112414	-4.85257864	9.786623955	1.0
102	-91.08300018	-5.167999744	22.60099792	-0.4623807073	-4.852437496	9.785089493	1.0
103	-91.08300018	-5.167999744	22.60099792	-0.4620673358	-4.852096081	9.781386375	1.0
104	-91.08300018	-5.167999744	22.60099792	-0.461350143	-4.851312637	9.772891998	1.0
[RightHandIndex2]
101	-36.76399994	0	0	-0.7247845531	-2.941848516	22.51158524	1.0
102	-36.76399994	0	0	-0.7247065902	-2.941715002	22.5100708	1.0
103	-36.76399994	0	0	-0.7245172262	-2.941390991	22.5063839	1.0
104	-36.76399994	0	0	-0.7240812182	-2.940645933	22.49788475	1.0
[RightHandIndex3]
101	-28.83100128	0	0	-0.2882303894	-0.3455024362	15.77878475	1.0
102	-28.83100128	0	0	-0.2881888747	-0.3453548849	15.77725697	1.0
103	-28.83100128	0	0	-0.2880882323	-0.3449980915	15.77356815	1.0
104	-28.83100128	0	0	-0.2878567874	-0.3441785574	15.76510048	1.0
[RightHandIndex4]
101	-23.92700005	0	0	0	0	0	1.0
102	-23.92700005	0	0	0	0	0	1.0
103	-23.92700005	0	0	0	0	0	1.0
104	-23.92700005	0	0	0	0	0	1.0
[RightHandThumb1]
101	-24.64799881	-15.72700024	26.82600021	19.57191086	0.4738137126	-12.7810955	1.0
102	-24.64799881	-15.72700024	26.82600021	19.56765366	0.4823561311	-12.77437687	1.0
103	-24.64799881	-15.72700024	26.82600021	19.55738258	0.5030440092	-12.75816059	1.0
104	-24.64799881	-15.72700024	26.82600021	19.53380585	0.5505790114	-12.72093391	1.0
[RightHandThumb2]
101	-32.29800034	-18.64699936	18.64699936	1.347298503	-37.06418991	1.736469626	1.0
102	-32.29800034	-18.64699936	18.64699936	1.342550039	-37.05315781	1.7393713	1.0
103	-32.29800034	-18.64699936	18.64699936	1.331077814	-37.02646637	1.7463696	1.0
104	-32.29800034	-18.64699936	18.64699936	1.304734468	-36.96514893	1.762425184	1.0
[RightHandThumb3]
101	-26.52600098	-15.31399918	15.31399918	3.029551506	-12.76513386	-0.2703749835	1.0
102	-26.52600098	-15.31399918	15.31399918	3.026424408	-12.75410175	-0.2673922777	1.0
103	-26.52600098	-15.31399918	15.31399918	3.018881083	-12.72742081	-0.2602145374	1.0
104	-26.52600098	-15.31399918	15.31399918	3.001571417	-12.6661377	-0.2437571436	1.0
[RightHandThumb4]
101	-19.54599953	-11.28499985	11.28499985	0	0	0	1.0
102	-19.54599953	-11.28499985	11.28499985	0	0	0	1.0
103	-19.54599953	-11.28499985	11.28499985	0	0	0	1.0
104	-19.54599953	-11.28499985	11.28499985	0	0	0	1.0
[LeftUpLeg]
101	82.07800293	-67.51699829	-15.99599934	-17.56986046	15.18515587	12.02055836	1.0
102	82.07800293	-67.51699829	-15.99599934	-17.57242203	15.17808437	12.01364803	1.0
103	82.07800293	-67.51699829	-15.99599934	-17.57710075	15.16880131	12.00717545	1.0
104	82.07800293	-67.51699829	-15.99599934	-17.58690262	15.15346718	12.00139332	1.0
[LeftLeg]
101	0	-443.7049866	2.845999956	25.18943405	7.752164841	6.18916893	1.0
102	0	-443.7049866	2.845999956	25.18656921	7.751633167	6.190068722	1.0
103	0	-443.7049866	2.845999956	25.18610001	7.749932289	6.193065166	1.0
104	0	-443.7049866	2.845999956	25.19113159	7.745325089	6.201370239	1.0
[LeftFoot]
101	0	-444.2789917	-29.8219986	-4.334868908	2.79321456	-11.25059032	1.0
102	0	-444.2789917	-29.8219986	-4.332859516	2.793125868	-11.24994755	1.0
103	0	-444.2789917	-29.8219986	-4.332895756	2.793092489	-11.24926949	1.0
104	0	-444.2789917	-29.8219986	-4.338176727	2.793946743	-11.24855995	1.0
[LeftToeBase]
101	0	-87.28699493	107.1060028	-0.4760267138	1.828328823e-05	-2.563983344e-06	1.0
102	0	-87.28699493	107.1060028	-0.4767280519	-9.334153219e-07	-6.452694947e-07	1.0
103	0	-87.28699493	107.1060028	-0.4785085618	-1.292791876e-05	4.51574067e-07	1.0
104	0	-87.28699493	107.1060028	-0.4831505716	-7.480252862e-07	-5.056396617e-07	1.0
[RightUpLeg]
101	-82.07800293	-67.51699829	-15.99599934	-1.88665235	-4.576785088	10.88184071	1.0
102	-82.07800293	-67.51699829	-15.99599934	-1.88658762	-4.580557346	10.87885094	1.0
103	-82.07800293	-67.51699829	-15.99599934	-1.887601852	-4.58365202	10.87803268	1.0
104	-82.07800293	-67.51699829	-15.99599934	-1.891213536	-4.585079193	10.88241005	1.0
[RightLeg]
101	0	-443.7049866	2.861999989	11.22638035	-5.296226501	2.269512177	1.0
102	0	-443.7049866	2.861999989	11.22029877	-5.308206081	2.264493704	1.0
103	0	-443.7049866	2.861999989	11.21630764	-5.322065353	2.258437157	1.0
104	0	-443.7049866	2.861999989	11.21725655	-5.340723515	2.249706268	1.0
[RightFoot]
101	0	-444.2770081	-29.83799934	-9.752696037	-0.3376016915	-7.946313858	1.0
102	0	-444.2770081	-29.83799934	-9.750809669	-0.3368247449	-7.939253807	1.0
103	0	-444.2770081	-29.83799934	-9.750066757	-0.3360206187	-7.931817055	1.0
104	0	-444.2770081	-29.83799934	-9.752124786	-0.3350967169	-7.923308372	1.0
[RightToeBase]
101	0	-87.28699493	107.1060028	-0.586920023	-3.180953172e-06	-3.484450644e-06	1.0
102	0	-87.28699493	107.1060028	-0.5897966623	6.95318306e-07	-2.48823676e-06	1.0
103	0	-87.28699493	107.1060028	-0.5910041332	2.947511348e-06	-1.612104597e-06	1.0
104	0	-87.28699493	107.1060028	-0.5866888762	2.699948709e-07	-1.262239152e-06	1.0
[EndOfFile]
